<?xml version="1.0" standalone="no"?>
<!DOCTYPE svg PUBLIC "-//W3C//DTD SVG 20010904//EN"
 "http://www.w3.org/TR/2001/REC-SVG-20010904/DTD/svg10.dtd">
<svg version="1.0" xmlns="http://www.w3.org/2000/svg"
 width="600.000000pt" height="600.000000pt" viewBox="0 0 600.000000 600.000000"
 preserveAspectRatio="xMidYMid meet">
<metadata>
Created by potrace 1.14, written by Peter Selinger 2001-2017
</metadata>
<g transform="translate(0.000000,600.000000) scale(0.100000,-0.100000)"
fill="#000000" stroke="none">
<path d="M3250 5870 l0 -120 -125 0 -125 0 0 -125 0 -125 -125 0 -125 0 0 125
0 125 -125 0 -125 0 0 101 0 102 -47 -7 c-66 -8 -238 -51 -355 -87 l-98 -30 0
-39 0 -40 -94 0 c-51 0 -107 -5 -125 -11 l-31 -11 0 -239 0 -239 -125 0 -125
0 0 -375 0 -375 -250 0 -250 0 0 125 0 125 -125 0 -125 0 0 112 0 111 -26 -24
c-59 -55 -314 -414 -314 -441 0 -4 20 -8 45 -8 l45 0 0 -125 0 -125 125 0 125
0 0 -125 0 -125 250 0 250 0 0 -125 0 -125 125 0 125 0 0 -375 0 -375 -125 0
-125 0 0 -375 0 -375 125 0 125 0 2 -926 3 -926 110 -59 c61 -32 116 -59 123
-59 9 0 12 179 12 860 l0 860 1125 0 1125 0 0 -500 0 -500 -125 0 -125 0 0
375 0 375 -125 0 -125 0 0 -125 0 -125 -125 0 -125 0 0 125 0 125 -125 0 -125
0 0 -125 0 -125 -125 0 -125 0 0 125 0 125 -125 0 -125 0 0 -375 0 -375 125 0
125 0 0 125 0 125 125 0 125 0 0 -125 0 -125 125 0 125 0 0 125 0 125 125 0
125 0 0 -125 0 -125 125 0 125 0 0 -125 0 -125 -625 0 -625 0 0 -355 c0 -195
1 -355 3 -355 1 0 52 -7 112 -15 61 -8 116 -15 123 -15 9 0 12 56 12 245 l0
245 500 0 500 0 0 125 0 125 125 0 125 0 0 125 0 125 125 0 125 0 0 1375 0
1375 125 0 125 0 0 125 0 125 250 0 250 0 0 125 0 125 125 0 125 0 0 125 0
125 125 0 125 0 0 79 0 79 -59 83 c-33 45 -92 122 -132 171 l-72 88 -119 0
-118 0 0 -125 0 -125 -125 0 -125 0 0 -125 0 -125 -250 0 -250 0 0 375 0 375
-125 0 -125 0 0 250 0 250 -125 0 -124 0 -3 77 -3 78 -75 17 c-78 18 -277 52
-367 63 l-53 6 0 -121z m750 -2495 l0 -125 -875 0 -875 0 0 125 0 125 875 0
875 0 0 -125z m-1000 -1000 l0 -125 -375 0 -375 0 0 125 0 125 375 0 375 0 0
-125z m1000 0 l0 -125 -375 0 -375 0 0 125 0 125 375 0 375 0 0 -125z"/>
</g>
</svg>
