<?xml version="1.0" standalone="no"?>
<!DOCTYPE svg PUBLIC "-//W3C//DTD SVG 20010904//EN"
 "http://www.w3.org/TR/2001/REC-SVG-20010904/DTD/svg10.dtd">
<svg version="1.0" xmlns="http://www.w3.org/2000/svg"
 width="672.000000pt" height="672.000000pt" viewBox="0 0 672.000000 672.000000"
 preserveAspectRatio="xMidYMid meet">
<metadata>
Created by potrace 1.14, written by Peter Selinger 2001-2017
</metadata>
<g transform="translate(0.000000,672.000000) scale(0.100000,-0.100000)"
fill="#000000" stroke="none">
<path d="M3169 6596 c-2 -2 -40 -6 -84 -10 -146 -10 -253 -25 -435 -61 -164
-32 -423 -112 -603 -187 -65 -27 -126 -53 -135 -58 -9 -5 -42 -20 -72 -34 -61
-29 -202 -104 -258 -138 -44 -26 -203 -129 -217 -140 -5 -5 -50 -38 -100 -74
-49 -37 -97 -74 -106 -83 -9 -9 -26 -23 -38 -31 -12 -8 -43 -35 -69 -59 -204
-192 -290 -283 -401 -426 -34 -44 -65 -84 -69 -90 -67 -85 -206 -323 -281
-480 -83 -174 -120 -279 -167 -470 -13 -55 -27 -111 -31 -125 -4 -14 -8 -32
-9 -40 -1 -8 -4 -32 -8 -52 -3 -21 -9 -55 -12 -75 -3 -21 -7 -49 -10 -63 -3
-14 -6 -38 -8 -55 -2 -16 -7 -55 -11 -85 -9 -70 -12 -97 -21 -195 -3 -44 -9
-96 -11 -115 -9 -69 -12 -836 -4 -875 5 -22 12 -60 15 -85 3 -25 8 -56 11 -70
2 -14 7 -35 9 -48 47 -232 237 -565 446 -781 25 -25 79 -84 119 -131 173 -197
377 -401 515 -515 26 -22 59 -50 72 -63 43 -41 327 -252 340 -252 7 0 14 -4
16 -8 7 -19 405 -232 433 -232 3 0 24 -9 48 -20 95 -44 389 -139 507 -164 14
-3 43 -10 65 -15 22 -5 56 -12 75 -15 19 -3 46 -8 60 -11 23 -5 42 -8 130 -21
73 -10 117 -15 175 -21 78 -8 598 -8 650 0 22 3 63 8 90 12 123 14 354 54 395
69 8 3 26 7 40 10 91 16 401 120 520 174 19 8 37 15 40 15 15 0 302 150 410
215 126 75 332 218 338 234 2 4 8 8 14 8 6 0 18 8 27 18 9 9 39 35 66 57 53
42 228 215 284 281 109 128 301 382 301 399 0 2 23 40 50 83 28 43 50 84 50
90 0 7 5 12 10 12 6 0 10 9 10 19 0 11 3 21 8 23 10 4 58 101 55 110 -2 4 2 8
7 8 6 0 10 4 10 10 0 5 11 33 24 62 74 163 155 400 191 558 23 100 54 255 59
295 3 28 10 77 15 110 12 79 7 636 -7 700 -6 28 -13 64 -16 80 -14 73 -55 246
-63 265 -3 8 -8 24 -10 35 -23 122 -261 678 -381 890 -54 95 -184 296 -206
318 -9 8 -16 20 -16 26 0 5 -6 14 -13 18 -7 4 -20 20 -30 35 -9 15 -27 37 -39
50 -13 13 -39 43 -59 68 -174 214 -530 506 -814 667 -178 100 -428 214 -580
262 -38 12 -79 26 -90 31 -11 5 -33 12 -50 16 -16 4 -34 8 -40 10 -45 14 -207
54 -235 59 -19 3 -42 8 -50 10 -21 6 -67 14 -120 21 -25 3 -52 7 -60 9 -8 2
-40 7 -70 10 -30 3 -71 8 -90 11 -41 6 -496 15 -501 10z m293 -922 c9 -3 27
-7 40 -9 36 -7 156 -44 228 -71 82 -30 171 -58 235 -74 193 -47 283 -118 414
-327 183 -291 210 -316 341 -307 273 17 519 150 710 382 19 23 54 56 78 72 38
25 47 27 75 18 64 -22 109 -98 131 -223 7 -41 10 -75 7 -75 -3 0 -6 -37 -6
-83 -1 -80 -12 -216 -20 -240 -2 -7 -6 -28 -9 -47 -13 -90 -135 -400 -157
-400 -5 0 -9 -5 -9 -11 0 -32 -246 -284 -370 -379 -24 -19 -50 -40 -57 -47
-43 -39 -195 -108 -308 -138 -128 -35 -170 -71 -190 -165 -8 -37 -35 -70 -58
-70 -19 0 -52 -39 -65 -78 -11 -33 -9 -286 3 -345 7 -35 -33 -117 -158 -326
-78 -131 -88 -153 -112 -255 -14 -61 -28 -118 -31 -127 -3 -10 -21 -34 -41
-55 -27 -30 -74 -109 -64 -109 1 0 -19 -42 -44 -94 -54 -110 -54 -144 -2 -200
18 -19 38 -42 46 -50 69 -75 133 -237 133 -336 1 -72 -3 -79 -52 -125 -29 -27
-50 -55 -50 -67 0 -11 20 -49 45 -83 48 -64 113 -182 119 -215 2 -11 12 -47
21 -80 14 -46 18 -95 17 -215 0 -85 -5 -167 -11 -183 -15 -39 -55 -52 -111
-37 -25 6 -49 13 -55 14 -5 1 -14 4 -20 7 -5 4 -23 9 -38 13 -63 15 -181 117
-300 260 -17 21 -36 44 -42 50 -28 31 -93 134 -98 156 -4 14 -16 40 -27 58
-18 29 -24 32 -67 32 -27 0 -68 -7 -93 -16 -25 -9 -84 -17 -131 -18 -96 -3
-95 -2 -195 -95 -38 -35 -94 -82 -124 -104 -30 -23 -60 -46 -67 -51 -6 -6 -26
-22 -44 -36 -18 -14 -66 -58 -106 -97 -62 -62 -79 -73 -107 -73 -32 0 -37 4
-63 57 -48 98 -40 270 17 389 11 22 20 46 20 52 0 7 4 12 8 12 11 0 34 48 37
75 4 41 -17 64 -84 90 -73 30 -288 133 -305 146 -6 5 -74 50 -151 101 -120 79
-198 134 -288 206 -70 57 -222 213 -240 247 -33 61 -36 80 -23 142 19 92 112
243 150 243 20 0 103 46 134 74 49 45 101 111 117 150 l15 35 -103 49 c-56 28
-127 72 -158 99 -60 51 -69 59 -139 113 -49 38 -69 58 -177 173 -66 69 -183
218 -183 231 0 3 -22 39 -50 80 -27 41 -50 79 -50 85 0 6 -4 11 -9 11 -12 0
-50 134 -58 205 -8 80 -8 278 1 340 20 142 102 353 194 495 37 57 89 147 149
260 45 82 239 341 334 443 105 113 267 236 399 302 30 16 76 39 102 52 26 13
67 27 90 32 77 14 202 1 273 -29 11 -5 38 -14 60 -21 22 -6 45 -15 50 -19 14
-11 124 -39 160 -41 62 -2 113 21 165 76 43 46 196 120 265 128 34 4 112 -1
137 -9z"/>
<path d="M3774 5466 c-5 -13 31 -118 59 -172 22 -43 25 -101 10 -163 -8 -29
-12 -59 -10 -65 3 -7 36 -25 73 -41 108 -44 132 -54 167 -69 73 -31 225 -79
265 -84 48 -5 92 17 92 46 0 9 -10 29 -23 44 -13 14 -32 44 -43 65 -10 21 -24
43 -30 49 -6 7 -32 51 -59 99 -75 133 -141 186 -295 234 -41 13 -79 27 -85 31
-5 4 -19 10 -30 13 -11 3 -35 10 -53 16 -25 8 -34 7 -38 -3z"/>
<path d="M5472 5179 c-58 -64 -130 -136 -154 -154 -99 -78 -291 -177 -388
-200 -151 -37 -239 -47 -410 -50 -182 -2 -186 -2 -270 27 -47 16 -89 31 -95
32 -54 13 -141 43 -190 67 -59 28 -194 77 -350 126 -92 29 -103 32 -110 33 -3
0 -31 13 -63 28 -61 31 -183 67 -203 60 -23 -8 102 -114 176 -148 17 -8 43
-23 58 -33 42 -28 316 -166 362 -182 22 -7 54 -16 70 -19 69 -12 158 -29 170
-32 24 -7 62 -15 90 -20 17 -2 41 -6 55 -9 14 -2 45 -7 70 -11 110 -16 221
-80 337 -192 134 -132 187 -257 187 -442 0 -58 -4 -127 -8 -155 -15 -92 -18
-88 59 -69 98 24 257 122 345 214 211 217 245 266 320 450 30 72 67 211 78
295 9 61 8 347 -1 375 -10 35 -28 56 -55 64 -20 7 -32 -2 -80 -55z"/>
<path d="M4416 4289 c-15 -12 -41 -46 -57 -75 -55 -96 -118 -146 -204 -160
-67 -10 -66 15 3 85 20 20 45 54 55 74 28 61 4 74 -61 34 -63 -39 -172 -82
-237 -94 -83 -14 -312 -101 -320 -121 -8 -22 56 -113 143 -200 39 -40 72 -77
72 -82 0 -5 -10 -18 -22 -29 -26 -25 -47 -22 -132 18 -67 32 -148 46 -179 29
-24 -12 -7 -34 34 -43 16 -4 31 -11 34 -16 4 -5 13 -9 20 -9 8 0 47 -21 87
-47 40 -26 111 -66 157 -90 95 -48 114 -48 171 -1 41 33 53 35 78 8 16 -18 18
-28 11 -66 -5 -25 -11 -49 -14 -54 -7 -12 -18 -82 -17 -110 1 -14 4 -122 8
-241 l6 -216 -26 -51 c-15 -29 -23 -58 -20 -69 8 -23 124 -133 139 -133 7 0
33 39 58 88 92 178 103 195 140 233 20 20 38 41 38 46 1 4 3 55 4 111 2 100 1
104 -23 120 -14 9 -34 18 -44 19 -31 5 -161 68 -180 87 -11 10 -18 32 -18 53
0 20 3 34 6 30 3 -3 15 2 25 12 16 14 80 41 109 45 3 1 19 6 35 13 54 20 70
26 80 28 37 10 125 48 135 59 10 13 8 147 -5 231 -4 32 -5 62 -6 190 0 162
-20 292 -47 309 -5 3 -22 -4 -36 -15z"/>
<path d="M3283 3325 c-12 -9 -32 -29 -44 -46 -22 -31 -22 -32 -3 -68 10 -20
21 -38 24 -41 23 -22 49 -92 46 -122 -3 -31 -49 -125 -107 -223 -100 -165
-121 -248 -123 -470 -1 -142 10 -172 88 -248 71 -68 228 -193 251 -201 11 -3
40 0 65 8 50 15 119 14 163 -3 71 -27 135 -5 210 73 52 55 121 174 142 246 1
3 9 22 18 44 22 49 22 85 0 103 -57 45 -124 78 -183 90 -30 6 -167 5 -210 -1
-81 -12 -140 -28 -140 -37 0 -5 -7 -9 -15 -9 -8 0 -15 -4 -15 -10 0 -5 -4 -10
-9 -10 -5 0 -22 -5 -38 -11 -15 -6 -30 -11 -33 -11 -3 0 -12 -4 -20 -8 -9 -5
-34 -11 -57 -15 -36 -5 -43 -3 -61 20 -12 15 -19 32 -17 38 2 7 6 29 9 50 3
20 18 59 32 87 31 59 143 166 208 198 48 24 212 62 279 65 58 2 96 40 101 100
5 53 -8 67 -62 67 -56 0 -59 21 -14 113 64 131 76 160 74 186 -3 41 -21 44
-122 22 -71 -16 -225 -4 -324 25 -63 18 -86 18 -113 -1z m536 -966 c84 -27 91
-31 91 -54 0 -26 -19 -37 -70 -40 -19 -2 -53 -10 -75 -18 -70 -25 -150 17
-141 74 6 40 8 42 59 49 50 7 88 4 136 -11z"/>
<path d="M3902 1838 c-5 -7 -12 -52 -14 -100 -4 -73 -9 -93 -32 -128 -15 -22
-35 -48 -45 -57 -25 -21 -16 -46 22 -68 18 -10 34 -21 37 -25 3 -3 32 -23 64
-43 59 -36 60 -36 87 -19 15 9 43 32 63 50 35 31 36 33 30 90 -8 70 -17 81
-41 51 -40 -50 -74 -80 -85 -77 -7 3 -17 19 -22 36 -7 25 -5 37 10 59 63 94
60 131 -15 216 -27 30 -43 34 -59 15z"/>
<path d="M3518 1834 c-2 -2 -22 -4 -43 -5 -61 -4 -88 -22 -146 -101 -30 -40
-59 -80 -66 -88 -96 -120 -96 -126 2 -145 6 -1 25 7 43 18 17 10 32 15 32 12
0 -4 6 -3 13 3 21 17 91 24 122 12 51 -20 65 -20 108 0 23 10 68 29 101 42 84
33 112 70 115 155 1 43 -2 69 -10 74 -7 4 -35 5 -63 2 -28 -3 -71 0 -96 7 -49
12 -107 20 -112 14z"/>
<path d="M3627 1463 c-3 -5 -4 -45 -2 -91 1 -45 -3 -100 -8 -122 -6 -22 -8
-43 -4 -47 9 -8 74 54 91 87 19 37 19 115 1 150 -12 23 -22 30 -45 30 -16 0
-31 -3 -33 -7z"/>
<path d="M3365 1437 c-46 -33 -55 -43 -69 -79 -14 -36 -14 -40 -3 -80 15 -56
68 -19 130 91 44 77 10 118 -58 68z"/>
<path d="M3848 1342 c-26 -5 -22 -16 14 -43 43 -32 118 -110 118 -124 0 -3 22
-36 49 -73 75 -104 92 -145 98 -231 5 -99 7 -109 23 -156 16 -48 34 -68 58
-63 15 3 17 15 16 93 0 96 -5 131 -31 210 -17 54 -71 160 -100 196 -30 38
-117 123 -142 139 -13 8 -29 20 -35 25 -23 20 -51 31 -68 27z"/>
</g>
</svg>
