<svg xmlns="http://www.w3.org/2000/svg" viewBox="0 0 42.25 40.79"><defs><style>.cls-1{fill:#fff;}</style></defs><g id="Layer_2" data-name="Layer 2"><g id="Layer_1-2" data-name="Layer 1"><path class="cls-1" d="M25.22,23.85a1.33,1.33,0,0,0,.23-.51,11.89,11.89,0,0,0,0-1.19,14.27,14.27,0,0,0-.07-1.6,2,2,0,0,1,.16-.88c.11-.27.12-.63-.15-.74s-.53.52-.93.4a9.65,9.65,0,0,1-1.79-1,4.26,4.26,0,0,0-.62-.26c-.07,0-.31-.1-.27-.21s.24-.1.31-.11a2.08,2.08,0,0,1,1.17.37.51.51,0,0,0,.58,0,.23.23,0,0,0,.05-.34c-.2-.21-.43-.39-.63-.61s-.26-.32-.38-.49a1.24,1.24,0,0,1-.29-.46c0-.1.05-.17.14-.21.55-.22,1.13-.42,1.7-.59a5.61,5.61,0,0,0,1.66-.61c.82-.56.4.33.15.57s-.53.49-.43.59.6,0,.81-.11a1.92,1.92,0,0,0,.72-.75L27.4,15c.14-.29.64-1,.76-.22.06.39.1.79.13,1.19s0,.57,0,.86,0,.7.07,1.05a4.7,4.7,0,0,1,.05,1,.44.44,0,0,1-.06.16c-.08.11-.27.14-.39.18l-.53.19-1.06.37a1.2,1.2,0,0,0-.32.16c-.29.22-.17.53.1.7a5.6,5.6,0,0,0,.55.27c.14.05.28.12.43.16a.76.76,0,0,1,.38.16.41.41,0,0,1,.07.31,5.3,5.3,0,0,0,0,.69.73.73,0,0,1-.19.62,2.65,2.65,0,0,0-.33.34,2.8,2.8,0,0,0-.15.3c0,.1-.12.19-.17.3l-.24.45c-.09.18-.29.56-.29.57-.09.18-.2.2-.39,0s-.28-.31-.49-.47A.37.37,0,0,1,25.22,23.85Z"/><path class="cls-1" d="M0,23a13.66,13.66,0,0,0,.53,4.55,13.68,13.68,0,0,0,3,4.4,31,31,0,0,0,5.79,5.37A20.17,20.17,0,0,0,15,39.93a22.25,22.25,0,0,0,20.6-4.46,20.24,20.24,0,0,0,6.14-10.36,19.47,19.47,0,0,0,.51-6,20,20,0,0,0-1.8-6.18c-.09-.24-.21-.46-.31-.69C36.93,4.56,29.18,0,21,0a22,22,0,0,0-15,6.09,19.08,19.08,0,0,0-4.73,7.15A18.9,18.9,0,0,0,.54,16.1,37.1,37.1,0,0,0,0,23Zm6.75-5.74a6.15,6.15,0,0,1,.34-2.07,9.13,9.13,0,0,1,.94-2c.36-.49.61-1.05.92-1.57.13-.21.22-.43.36-.63s.32-.42.48-.63a16.88,16.88,0,0,1,1.53-1.85,7.86,7.86,0,0,1,1.24-1,5.74,5.74,0,0,1,.66-.43c.21-.12.44-.21.65-.34a2.55,2.55,0,0,1,1.6-.43,5,5,0,0,1,1,.21c1,.3,1.88,1,2.74.07a1.74,1.74,0,0,1,.42-.34c.24-.12.49-.22.74-.33a2.11,2.11,0,0,1,1.16-.15,9.12,9.12,0,0,1,1.17.3c.8.22,1.57.61,2.41.76a3.32,3.32,0,0,1,2,1.36c.21.31.41.62.61.93s.29.53.47.77c.51.71.77,1,1.66.87a5.61,5.61,0,0,0,1-.17,5.2,5.2,0,0,0,.67-.21l.37-.21c.13-.07.26-.11.38-.18a8.07,8.07,0,0,0,1.26-.91,8.38,8.38,0,0,0,.59-.72,2.82,2.82,0,0,1,.36-.33,1,1,0,0,1,.35-.23.59.59,0,0,1,.47.08c.91.77.66,2.36.57,3.42a7.38,7.38,0,0,1-.28,1.32,7.4,7.4,0,0,1-.41,1.11,5,5,0,0,1-.54,1,14.89,14.89,0,0,1-2.79,2.65,6.07,6.07,0,0,1-1.58.71,4.79,4.79,0,0,0-.91.28,1.1,1.1,0,0,0-.43.64c-.07.22-.07.53-.36.59-.58.12-.55,1-.51,1.65,0,.39.07.78.09,1.17a.9.9,0,0,1-.06.22,25.83,25.83,0,0,1-1.42,2.44,12.23,12.23,0,0,0-.42,1.66c-.06.19-.4.4-.51.62s-.25.62-.41.92c-.05.09-.14.29-.23.48a.62.62,0,0,0,.09.71l.18.22a3.45,3.45,0,0,1,1.05,2.67c0,.23-.32.46-.57.65a.28.28,0,0,0,0,.41l0,.05a6.06,6.06,0,0,1,.88,1.41c.06.16.11.33.16.5a3.84,3.84,0,0,1,.16.67c0,.54,0,1.09,0,1.64a1.86,1.86,0,0,1-.09.47.35.35,0,0,1-.15.17.64.64,0,0,1-.6,0c-.25-.12-.55-.13-.8-.26a2.36,2.36,0,0,1-.92-.71c-.17-.24-.43-.41-.62-.63s-.53-.65-.78-1a2.43,2.43,0,0,1-.34-.66c-.09-.29-.2-.5-.55-.45a1.07,1.07,0,0,0-.4.05,1.81,1.81,0,0,1-.72.17,1.63,1.63,0,0,1-.38,0,.87.87,0,0,0-.75.25l-.12.11c-.32.3-.63.61-1,.89a9.1,9.1,0,0,0-1.36,1.12,2.87,2.87,0,0,1-.39.39c-.46.35-.74,0-.9-.85a2.84,2.84,0,0,1,0-.77,3.59,3.59,0,0,1,.53-1.53.74.74,0,0,0,.17-.55.54.54,0,0,0-.36-.39,10.45,10.45,0,0,1-1.75-.77c-.56-.33-1.11-.68-1.63-1.05a13.7,13.7,0,0,1-2.79-2.35,1.92,1.92,0,0,1-.37-.65,1.77,1.77,0,0,1,.28-1.15c.18-.37.33-.77.78-.91A2.32,2.32,0,0,0,12,26a4.28,4.28,0,0,0,.52-.67.32.32,0,0,0,.07-.26c-.05-.17-.38-.26-.52-.32a5.08,5.08,0,0,1-.66-.33A4.36,4.36,0,0,1,10.9,24c-.37-.31-.76-.59-1.13-.9-.16-.14-.29-.32-.44-.48a13.39,13.39,0,0,1-1-1.09c-.34-.44-.6-.93-.91-1.39A3,3,0,0,1,6.9,19a7.36,7.36,0,0,1-.12-.8A9.13,9.13,0,0,1,6.75,17.27Z"/><path class="cls-1" d="M22.77,32.57c0-.16-.06-.27.12-.31a.37.37,0,0,1,.29,0,.51.51,0,0,1,.17.28,1.32,1.32,0,0,1,0,.71,1.22,1.22,0,0,1-.27.41c-.09.1-.25.29-.4.28h0a.06.06,0,0,1,0,0,5.43,5.43,0,0,1,.13-.68A3.75,3.75,0,0,0,22.77,32.57Z"/><path class="cls-1" d="M24.46,30.54a4,4,0,0,0,0-.49.19.19,0,0,1,.3-.16,4.67,4.67,0,0,1,.38.4.69.69,0,0,1,.05.79,4.12,4.12,0,0,0-.27.45c-.07.14,0,.38.1.42s.26,0,.35-.17a2.88,2.88,0,0,1,.27-.34c.06-.05.13-.08.19,0s0,0,0,0c0,.21.06.41.07.62a.35.35,0,0,1-.1.22,5,5,0,0,1-.57.46.29.29,0,0,1-.24,0,1,1,0,0,1-.23-.15l-.45-.3a1.33,1.33,0,0,0-.19-.14c-.09-.06-.27-.13-.26-.27a.16.16,0,0,1,0-.08A1.44,1.44,0,0,0,24.46,30.54Z"/><path class="cls-1" d="M27.37,12.05c-.62-.14-1.26-.16-1.87-.36a9.28,9.28,0,0,0-.92-.15,4.63,4.63,0,0,1-.8-.25,7.49,7.49,0,0,0-.84-.44,9.41,9.41,0,0,1-1.25-.68,4.23,4.23,0,0,1-1.29-.9.6.6,0,0,1-.08-.08.17.17,0,0,1,.06-.12h0l0,0,.25.08.48.14.1,0a4.73,4.73,0,0,1,.45.23,4.53,4.53,0,0,0,.76.26c.27.08.55.16.82.26s.61.23.92.34a2,2,0,0,1,.57.2,3.06,3.06,0,0,0,.9.37c.42.14.85.26,1.26.42a1.29,1.29,0,0,0,.84.09,1.27,1.27,0,0,1,.28,0h1a3.23,3.23,0,0,0,.44,0c.48-.08.95-.16,1.42-.27a6.75,6.75,0,0,0,.9-.29,3.1,3.1,0,0,0,.47-.26c.22-.12.45-.23.66-.36a5.3,5.3,0,0,0,.54-.39,3.11,3.11,0,0,0,.65-.6,3.21,3.21,0,0,1,.57-.65.31.31,0,0,1,.47.07,1.62,1.62,0,0,1,.2.72c0,.32,0,.64,0,1a6.67,6.67,0,0,1-.24,1.72,4.31,4.31,0,0,1-.27.93,7.87,7.87,0,0,1-.68,1.4,8.25,8.25,0,0,1-1,1.13,6.83,6.83,0,0,1-.51.58,6.64,6.64,0,0,1-.66.49,4.51,4.51,0,0,1-1.36.7c-.1,0-.39.15-.46,0a.32.32,0,0,1,0-.14,9.44,9.44,0,0,0,.17-1.3,5.11,5.11,0,0,0-.13-.86,3.46,3.46,0,0,0-1.21-2c-.11-.09-.2-.21-.31-.3a5.07,5.07,0,0,0-.54-.36A3.28,3.28,0,0,0,27.37,12.05Z"/><path class="cls-1" d="M27.35,10.89a7.22,7.22,0,0,1-1.3-.39c-.52-.19-1-.41-1.55-.62s-.43-.27-.33-.7a1.27,1.27,0,0,0-.08-1,3.61,3.61,0,0,1-.27-.64c0-.11-.27-.52,0-.48a4.14,4.14,0,0,1,.59.21l.61.21.46.16a2.74,2.74,0,0,1,1,.67,7,7,0,0,1,.56.95c.09.15.19.29.29.43a2.65,2.65,0,0,0,.42.66c.1.14.2.25,0,.4A.51.51,0,0,1,27.35,10.89Z"/><path class="cls-1" d="M24.38,33.07a2.52,2.52,0,0,1,.44.28,4.15,4.15,0,0,1,.51.43,4.42,4.42,0,0,1,1.25,3.49.16.16,0,0,1-.3.07,1.31,1.31,0,0,1-.29-.77,3.18,3.18,0,0,0-.06-.43.72.72,0,0,1,0-.25.29.29,0,0,0,0-.16.7.7,0,0,0,0-.14,3.42,3.42,0,0,0-.47-.86c-.15-.22-.32-.42-.46-.65l-.15-.23a1.87,1.87,0,0,0-.26-.3,2.23,2.23,0,0,0-.24-.19c-.06,0-.26-.14-.28-.21S24.29,33,24.38,33.07Z"/><path class="cls-1" d="M21.66,32.55a1.78,1.78,0,0,1-.42.74c-.11.17-.35.49-.5.28a.64.64,0,0,1-.06-.14.77.77,0,0,1,.14-.7C21,32.56,21.68,31.94,21.66,32.55Z"/><path class="cls-1" d="M19.35,25.91c0,.35,0,.7-.05,1.05a1.68,1.68,0,0,0,.64,1.34c.33.29.66.56,1,.83a2.67,2.67,0,0,0,.47.36c.17.08.34,0,.51-.06a1.44,1.44,0,0,1,.62-.05c.25,0,.48.21.73.18a1.36,1.36,0,0,0,.62-.22,3.42,3.42,0,0,0,1-1.33c.14-.33.28-.66.42-1a.42.42,0,0,0-.14-.52,2.19,2.19,0,0,0-.41-.26,1.89,1.89,0,0,0-.84-.27,5.72,5.72,0,0,0-1.89.16c-.18.07-.33.24-.51.31a4.51,4.51,0,0,1-.86.27.37.37,0,0,1-.43-.41,1.8,1.8,0,0,1,.4-1.09,3.74,3.74,0,0,1,1.14-1,2,2,0,0,1,.46-.17c.38-.09.76-.16,1.15-.23h.24a.53.53,0,0,0,.5-.37,1.14,1.14,0,0,0,.05-.55.09.09,0,0,0-.06-.06c-.22-.15-1,.07-.5-.61a2,2,0,0,0,.31-.65,2.09,2.09,0,0,1,.22-.48c.08-.17,0-.54-.26-.45s-.44.09-.66.13a3.73,3.73,0,0,1-.82,0,5.14,5.14,0,0,1-.55-.06,2.91,2.91,0,0,1-.66-.17.6.6,0,0,0-.75.23c-.06.08-.11.17-.16.25a.24.24,0,0,0,0,.23,6.4,6.4,0,0,1,.42.64.86.86,0,0,1,0,.78c-.21.38-.41.76-.62,1.13-.11.2-.26.39-.35.59A4.94,4.94,0,0,0,19.35,25.91Zm3.42,1a.39.39,0,0,1,.17-.31.7.7,0,0,1,.29,0l.17-.05.07,0a1.14,1.14,0,0,1,.4.08l.4.11c.15,0,.37.1.33.28s-.26.23-.41.24a1.21,1.21,0,0,1-.19,0s-.11,0-.13,0a.72.72,0,0,1-.76.09C22.85,27.23,22.75,27.12,22.77,26.92Z"/><path class="cls-1" d="M20.64,31c.2-.25.38-.51.58-.76A.56.56,0,0,1,21.7,30a3.38,3.38,0,0,0,.63-.07h.17a1.53,1.53,0,0,0,1.2.12.23.23,0,0,1,.19.1v.57a.85.85,0,0,1-.61.78c-.18.05-.35.15-.53.2s-.35.21-.55.22-.33-.16-.54-.17a1.76,1.76,0,0,0-.91.27.43.43,0,0,1-.46,0L20.13,32a.16.16,0,0,1-.06-.25Z"/></g></g></svg>