<svg xmlns="http://www.w3.org/2000/svg" viewBox="0 0 131.68 125.88"><defs><style>.cls-1{fill:#666;}</style></defs><g id="Layer_2" data-name="Layer 2"><g id="Layer_1-2" data-name="Layer 1"><path class="cls-1" d="M67.29,51.79l.25-.35a4.25,4.25,0,0,0,1.17-3,6.23,6.23,0,0,0-.6-2,3.61,3.61,0,0,1,0-3.64c.32-.56.66-1.11,1-1.64a5.06,5.06,0,0,0,.78-2,3.37,3.37,0,0,0,0-.55,1.22,1.22,0,0,1,.11-.83.68.68,0,0,1,.57-.23,1.22,1.22,0,0,1,.9.47,7.47,7.47,0,0,1,.74,1.35c.45,1,.86,1.89,1.25,2.77.2.46.4.92.59,1.38l.22.52a13.49,13.49,0,0,0,.78,1.63.88.88,0,0,0,.48.44.57.57,0,0,0,.44,0,.44.44,0,0,0,.23-.27.65.65,0,0,0,0-.34,11.25,11.25,0,0,0-.38-1.29c-.09-.28-.18-.56-.26-.85-.14-.49-.27-1-.4-1.52l-.24-1-.16-.6c-.17-.65-.36-1.38-.57-2.1a3.22,3.22,0,0,1,0-2,.88.88,0,0,1,.57.32,7.81,7.81,0,0,1,1.71,2.88,4.25,4.25,0,0,0,.87,1.68A4.17,4.17,0,0,0,80,42.53a7.38,7.38,0,0,0,1,0,5.15,5.15,0,0,1,1.58.18,3.27,3.27,0,0,1,1.67,1.6.85.85,0,0,0,.39.47.52.52,0,0,0,.61-.18.76.76,0,0,0,.08-.61l0-.24a7.8,7.8,0,0,0-.5-2A2.44,2.44,0,0,0,84,40.65a7,7,0,0,0-1.86-1,3.63,3.63,0,0,1-2.56-2.56c-.08-.31-.16-.64-.23-1s-.16-.68-.25-1a5.19,5.19,0,0,0-.71-1.72A3.09,3.09,0,0,0,78,33c-.25-.23-.52-.47-.56-.71a.58.58,0,0,1,.18-.52,1.38,1.38,0,0,1,1.09-.35,6.26,6.26,0,0,1,1.28.37l.15.06c.94.34,1.88.7,2.81,1.06l1.49.59.14.06,1.54.61c.19.08,1.14.41,1.38-.18s-.53-.88-.93-1l-.18-.09c-.44-.22-.89-.46-1.33-.7s-.82-.48-1.22-.72l-.15-.09-.67-.4-1-.61-.1-.06-1.57-.92c-.31-.19-1-.79-1.06-1.12,0,0,0-.06,0-.07a.44.44,0,0,1,.25-.1,5.36,5.36,0,0,1,3.67.81,3.91,3.91,0,0,0,1.74.54,4.12,4.12,0,0,0,3.21-1.18l.24-.24c.31-.3.63-.61,1-.88a1.74,1.74,0,0,1,.73-.37,4.08,4.08,0,0,1,2.15.11.63.63,0,0,0,.8-.27.58.58,0,0,0,0-.18.7.7,0,0,0-.32-.53l-.19-.15a7.28,7.28,0,0,0-2.13-1.23,2.5,2.5,0,0,0-1.06-.15,6.86,6.86,0,0,0-2.07.61,3.57,3.57,0,0,1-3.64,0l-.7-.43-.07,0c-.32-.2-.64-.41-1-.59a4.43,4.43,0,0,0-2-.73l-.43,0a1.09,1.09,0,0,1-.83-.13.66.66,0,0,1-.2-.51,1.38,1.38,0,0,1,.52-1,6,6,0,0,1,1.17-.65l.15-.06C81.09,20.41,82,20,83,19.55l1.52-.65,1.58-.69a2.25,2.25,0,0,0,.67-.45.65.65,0,0,0,.2-.56.47.47,0,0,0-.22-.34.76.76,0,0,0-.61,0l0,0-.66.21c-.47.15-.94.3-1.42.43s-1,.27-1.54.4l-.19.05-.71.18-.36.09-2.55.68a2.6,2.6,0,0,1-1.59,0L77,18.83a.18.18,0,0,1,0-.13c.1-.45.67-.8,1.13-1.09l.32-.19a6.36,6.36,0,0,1,1.85-.88,4.05,4.05,0,0,0,1.61-.85,4.12,4.12,0,0,0,1.43-3.11l0-.83c0-.25,0-.49,0-.73a1.52,1.52,0,0,1,.28-.86,3.89,3.89,0,0,1,1.52-1.39.91.91,0,0,0,.42-.37.5.5,0,0,0-.13-.65A.69.69,0,0,0,85,7.67a7.44,7.44,0,0,0-2.69.66,2.61,2.61,0,0,0-.85.65,6.09,6.09,0,0,0-1,1.83,3.59,3.59,0,0,1-2.78,2.66c-.54.12-1.08.26-1.62.39l-.27.07a5.05,5.05,0,0,0-1.69.76,2.85,2.85,0,0,0-.43.42c-.29.34-.49.54-.84.47a1,1,0,0,1-.66-.65,2.21,2.21,0,0,1,.14-1.16c0-.11.06-.21.08-.31s.1-.3.15-.43a1.66,1.66,0,0,0,.06-.16l.28-.74.8-2.07.48-1.22,0-.1.21-.52A8.79,8.79,0,0,0,75,6.39a.84.84,0,0,0,0-.58.53.53,0,0,0-.62-.29.71.71,0,0,0-.36.37l-.32.6c-.21.42-.43.83-.65,1.23s-.58,1-.87,1.48l-.88,1.49c-.37.64-.76,1.31-1.13,2a2.93,2.93,0,0,1-.51.65l-.07.07a1,1,0,0,1-.46.32.27.27,0,0,1-.23,0c-.18-.14-.21-.58-.21-.74a3.11,3.11,0,0,1,.11-1.06,7.33,7.33,0,0,1,.84-2,4.1,4.1,0,0,0,.53-1.7A4.16,4.16,0,0,0,69,4.93l-.25-.25c-.28-.29-.6-.62-.88-1A1.84,1.84,0,0,1,67.47,3a4.85,4.85,0,0,1,.1-2.22.67.67,0,0,0-.11-.66.51.51,0,0,0-.6,0h0a.78.78,0,0,0-.21.17l-.13.17-.17.23a7,7,0,0,0-1.13,2,2.6,2.6,0,0,0-.14,1.1,6.36,6.36,0,0,0,.6,2,3.57,3.57,0,0,1,0,3.64l-.49.8c-.19.31-.39.63-.57,1a4.85,4.85,0,0,0-.7,1.72,3.21,3.21,0,0,0,0,.62c0,.53,0,.87-.34,1.06a1.16,1.16,0,0,1-1.25-.41,8.52,8.52,0,0,1-.75-1.4c-.45-1-.88-2-1.24-2.77l-.6-1.39c-.08-.17-.15-.36-.22-.55a5.78,5.78,0,0,0-.94-1.77A.67.67,0,0,0,58.12,6a.48.48,0,0,0-.35.13.66.66,0,0,0-.21.44,2,2,0,0,0,.2.76c0,.09.07.18.1.26.14.45.29.91.42,1.37s.25,1,.37,1.45c.08.32.16.64.25,1l.05.2c.21.81.43,1.64.66,2.45.28,1,.31,1.74.07,1.92s-.44.13-1.31-1a6.43,6.43,0,0,1-1-2,6.49,6.49,0,0,0-.55-1.28,3.9,3.9,0,0,0-3.21-2,12.27,12.27,0,0,0-1.35,0h-.53A1.38,1.38,0,0,1,51,9.37l-.1-.07a3.79,3.79,0,0,1-1.27-1.36l0-.05a1.46,1.46,0,0,0-.22-.35.54.54,0,0,0-.57-.17.52.52,0,0,0-.33.42,1.17,1.17,0,0,0,0,.42l0,.3a7,7,0,0,0,.61,2.21,2.37,2.37,0,0,0,.66.84,6,6,0,0,0,1.86,1,3.54,3.54,0,0,1,2.57,2.61l.12.44c.11.47.23.95.34,1.43a5.14,5.14,0,0,0,.72,1.66,2.67,2.67,0,0,0,.46.49,1.87,1.87,0,0,1,.48.59c.14.33,0,.56-.33.87a.75.75,0,0,1-.72.21,6.29,6.29,0,0,1-1.61-.44l-.39-.14c-.66-.24-1.32-.51-2-.79l-1-.4L50,19l-.66-.28A9.58,9.58,0,0,0,47.17,18a1,1,0,0,0-.52,0,.52.52,0,0,0-.36.51.68.68,0,0,0,.4.5l.56.3a7.8,7.8,0,0,1,.79.44l.66.35c.5.27,1,.55,1.51.84l1.89,1.12.22.13,1.19.7c.45.26,1.09,1,1,1.25,0,.06-.16.13-.49.11a7.35,7.35,0,0,1-3.31-.83A4.17,4.17,0,0,0,49,22.87,4.08,4.08,0,0,0,45.71,24l-.26.25c-.3.3-.62.6-1,.87a1.62,1.62,0,0,1-.69.37,3.91,3.91,0,0,1-2.16-.08.62.62,0,0,0-.82.28c-.06.17,0,.43.34.73a12.21,12.21,0,0,0,1.27.88,3.2,3.2,0,0,0,2.11.59,6.62,6.62,0,0,0,2-.6,3.57,3.57,0,0,1,3.64,0l.81.5,0,0c.29.18.59.37.89.54a5.08,5.08,0,0,0,1.81.65,3,3,0,0,0,.53,0c.41,0,.84,0,1,.28a.74.74,0,0,1,.08.53,1.39,1.39,0,0,1-.48.81,8.62,8.62,0,0,1-1.36.73c-1,.45-2,.9-2.84,1.27l-1.05.45-.17.08c-.62.26-1.25.54-1.88.82a2.16,2.16,0,0,0-.61.47.61.61,0,0,0-.18.55.5.5,0,0,0,.36.34,1.09,1.09,0,0,0,.55,0c1.57-.47,2.85-.83,4-1.15l1-.26.23-.06,1.8-.48a4.38,4.38,0,0,1,1.78-.12c.11,0,.18.05.2.11a.61.61,0,0,1-.23.48,7.71,7.71,0,0,1-2.78,1.73,10.82,10.82,0,0,0-1.3.55,3.62,3.62,0,0,0-1.68,2,5.18,5.18,0,0,0-.34,2v.18c0,.53-.05.93-.09,1.3a1.58,1.58,0,0,1-.43.74l-.18.23a3,3,0,0,1-1.14.89.78.78,0,0,0-.2.11.6.6,0,0,0-.25.54.48.48,0,0,0,.32.39,1,1,0,0,0,.45,0l.2,0A8,8,0,0,0,51.28,44a2.44,2.44,0,0,0,1-.73,6.64,6.64,0,0,0,1-1.9,3.57,3.57,0,0,1,2.55-2.56l1-.24,1-.24a5.15,5.15,0,0,0,1.7-.69,4,4,0,0,0,.56-.5c.47-.47.71-.71,1.31-.13a.81.81,0,0,1,.22.73,6.93,6.93,0,0,1-.45,1.6c0,.13-.1.26-.14.4-.24.69-.53,1.38-.79,2l0,.13-.35.87-.1.24a8.19,8.19,0,0,1-.39.85c-.15.32-.31.64-.44,1,0,0-.51,1.39-.08,1.8a.48.48,0,0,0,.56.06.88.88,0,0,0,.45-.46c.18-.36.37-.7.56-1.05l.43-.79c.28-.51.56-1,.86-1.56s.76-1.28,1.13-1.91l.82-1.38c.17-.28.8-1,1.13-1.09h.07a.18.18,0,0,1,0,.07c.49,1-.19,2.85-.73,3.82a4.17,4.17,0,0,0-.56,1.73,4.13,4.13,0,0,0,1.17,3.26l.69.72.43.46a2.59,2.59,0,0,1,.49,2c0,.05,0,.13-.05.24-.16.61-.27,1.17,0,1.41a.42.42,0,0,0,.45.08A1,1,0,0,0,67.29,51.79Z"/><path class="cls-1" d="M38.77,51.46c-.14-.22-.25-.28-.32-.25a.8.8,0,0,0-.17.55,2.53,2.53,0,0,1,0,.55c-.11.92,1.63-.11,1.94-.24a.29.29,0,0,0,.16-.36,3.15,3.15,0,0,0-.77-1.07c-.18-.19-.45-.33-.43,0a5,5,0,0,1,0,1.22C39.05,52,38.87,51.62,38.77,51.46Z"/><path class="cls-1" d="M112.3,83.83h.77c.47,0,1,0,1.44,0a10.91,10.91,0,0,1,1.27,0c.39,0,.8,0,1.19,0s.55,0,.83-.06a11.92,11.92,0,0,0,1.33-.11l.62-.09c.57-.08,1.17-.17,1.74-.29a12.47,12.47,0,0,0,7.53-5,13.56,13.56,0,0,0,2.46-6,10.45,10.45,0,0,0,.1-1.1c0-.35,0-.71.1-1.07a2,2,0,0,0,0-.41,2.58,2.58,0,0,1,0-.39,10.35,10.35,0,0,0-.22-2,14.43,14.43,0,0,0-1.53-4.41,5.38,5.38,0,0,0-3.11-2.71,22.11,22.11,0,0,0-2.8-.71c-.8-.17-1.59-.31-2.54-.47-.41-.07-.82-.13-1.24-.18l-.9-.13-1.56-.21c-.47,0-.93-.08-1.39-.11l-.63,0-3-.23h-.18l-.75-.05-1.62-.1L109,57.78l-.51,0h-.06l-.47,0-1.17-.1-.42,0c-.25,0-.5,0-.75-.07-1-.13-1.92-.27-2.77-.42a10,10,0,0,1-2.69-.9,6.38,6.38,0,0,1-1.9-1.33,7,7,0,0,1-1.1-1.63,8.35,8.35,0,0,0-.68-1.09,1.72,1.72,0,0,0-1.85-.77,2,2,0,0,0-1.37,1,2.64,2.64,0,0,0-.27,1A3.75,3.75,0,0,0,93.61,56a8.22,8.22,0,0,0,3.12,2.64,19,19,0,0,0,4,1.49c.87.23,1.81.44,2.87.64.55.1,1.09.16,1.64.22l1.12.12,1.37.16,2,.14h.21l2,.11,1.1.07.88.05.5,0c.57,0,1.15.07,1.72.12s.91.1,1.36.16L118,62a17.7,17.7,0,0,1,3.06.7A6,6,0,0,1,124.83,66a11.32,11.32,0,0,1,.94,3.87,8.15,8.15,0,0,1-.42,3.38,6.29,6.29,0,0,1-3,3.46A19.84,19.84,0,0,1,117,78.48a20.82,20.82,0,0,1-2.78.45l-.44,0c-.4,0-.8.07-1.2.08s-.62,0-.92,0L111,79a7.77,7.77,0,0,1-1.46-.18l-.25,0a13.6,13.6,0,0,1-4.81-1.92,21.43,21.43,0,0,1-3.32-2.72l-1-1a34.74,34.74,0,0,0-2.59-2.39A12.33,12.33,0,0,0,94.82,69a14.05,14.05,0,0,0-3.36-1c-.52-.1-1.06-.15-1.59-.2l-.26,0c-.35,0-.7-.06-1-.09h-.2l-.73-.06c-.44,0-.9-.08-1.34-.09-1.41,0-2.83,0-4.21,0H82a11.27,11.27,0,0,0-1.19.08c-.38,0-.76.1-1.13.15l-.72.1a6.69,6.69,0,0,0-1.44.33l-.35.12c-.36.14-.72.27-1.09.38a25.73,25.73,0,0,1-3.7.89l-.35,0-1.62.25-1.87.27-.21,0-.6.07c-.39,0-.79.1-1.18.17-1.53.29-2.88.57-4.13.86a43.37,43.37,0,0,1-5.79.94,12.3,12.3,0,0,1-1.27.07c-.74,0-1.52,0-2.29,0-1.67-.07-3.06-.11-4.37-.12-.59,0-1.19,0-1.77,0l-.53,0h-.12l-.35,0-1-.11-.4,0a5.53,5.53,0,0,1-.7-.07c-1.09-.18-2-.35-2.81-.52a13.33,13.33,0,0,1-3.37-1.15,7.11,7.11,0,0,1-3.13-3,7.8,7.8,0,0,1-.9-2.76,5.48,5.48,0,0,1,.14-2,5.81,5.81,0,0,1,1.43-2.68,7.19,7.19,0,0,1,1.75-1.27l.6-.31c.35-.19.72-.38,1.07-.59a2.38,2.38,0,0,0,1.24-1.58,4,4,0,0,0,.11-.91,1.08,1.08,0,0,1,.56-1,2,2,0,0,1,.25-.14c.12-.07.24-.14.35-.22a.3.3,0,0,0,.13-.14,3.93,3.93,0,0,0,0-.84.17.17,0,0,0-.06-.15.23.23,0,0,0-.21,0l-.06,0-.44.18-.11,0a13.62,13.62,0,0,1-1.67.69,7.72,7.72,0,0,1-3.81.38,3.84,3.84,0,0,1-2.26-1.21,2.56,2.56,0,0,1-.75-2.11,4.46,4.46,0,0,1,.78-1.95,10.84,10.84,0,0,1,2-2.05c.3-.25.6-.5.91-.74l.88-.72.1-.09a2.57,2.57,0,0,0,.39-.35s0-.06,0-.06a2.62,2.62,0,0,0-.41-.06l-.3,0c-1,.05-1.9.06-2-.47a1.85,1.85,0,0,1,.12-1,.35.35,0,0,1,.34-.25c.34,0,.45.45.74.58a1.93,1.93,0,0,0,1.38-.06s.06-.07.06-.1a1.56,1.56,0,0,0-.29-.65l0-.06A1.74,1.74,0,0,0,36,42c-.46-.28-1.06.15-1.54.5l-.26.18c-.54.36-1.13.68-1.7,1-.32.17-.64.34-.95.52a17.61,17.61,0,0,1-3.23,1.49l-1.74.55-1.5.46-.13.05a7.89,7.89,0,0,0-2.64,1.5,19.12,19.12,0,0,0-3.22,3.45,16.8,16.8,0,0,0-1,1.52l-.06.1a3,3,0,0,1-1.75,1.41,11.92,11.92,0,0,0-2.15.9c-.44.21-.9.44-1.36.63a.26.26,0,0,0-.18.15.43.43,0,0,0,.06.33.59.59,0,0,0,.11.09l0,0,.37.24a4.87,4.87,0,0,1,1.39,1.14l.32.4c.25.32.52.65.75,1a3.43,3.43,0,0,1,.52,1.79,7,7,0,0,1-.21,1.69c-.25,1.1-.49,2.27-.7,3.47-.1.55-.15,1.11-.2,1.66l0,.46c0,.42-.07.85-.1,1.28l-.05.59v.1l0,.48a6.87,6.87,0,0,0,0,1c.05.66.14,1.39.29,2.29s.32,1.8.5,2.52a26.79,26.79,0,0,0,1.39,4l.31.76c.43,1,.88,2.12,1.22,3.21s.58,2.12.81,3.17l.11.49a12.25,12.25,0,0,1,.27,2,12.85,12.85,0,0,1-.14,2.89c-.05.29-.1.58-.14.88s-.11.77-.19,1.16c-.33,1.57-.71,3.36-1.13,5.08-.29,1.22-.65,2.48-1.08,3.84a17.8,17.8,0,0,1-1,2.48,60.8,60.8,0,0,1-5.7,9.5,27.1,27.1,0,0,1-1.89,2.34c-.65.67-1.34,1.31-2,1.93L6,121a10.66,10.66,0,0,1-1.87,1.33l-.72.36c-.6.31-1.23.63-1.84,1a6.27,6.27,0,0,0-1.09.77,1.45,1.45,0,0,0-.4.34.36.36,0,0,0-.06.44q.17.36.84.42a.61.61,0,0,0,.59-.32,8.46,8.46,0,0,1,.86-1.24,3.6,3.6,0,0,1,1.05-.79l.27-.17a1.94,1.94,0,0,1,.91-.36.29.29,0,0,1,.27.16.3.3,0,0,1,0,.33,3.08,3.08,0,0,1-.46.38,2.5,2.5,0,0,0-.51.47l-.24.31a5.76,5.76,0,0,0-.67,1c0,.07,0,.14,0,.15a1.71,1.71,0,0,0,.69,0l.28,0,3.41-.06.83,0,.79,0,.24,0a1.46,1.46,0,0,0,.58-.21,1.84,1.84,0,0,0,.43-.52,3.38,3.38,0,0,0,.24-.41l.23-.4a23,23,0,0,1,3.93-4.44A25.11,25.11,0,0,0,16.91,117c.62-.74,1.22-1.53,1.79-2.29l.06-.07A53.79,53.79,0,0,0,21.91,110a7.81,7.81,0,0,1,.77-1.07,11.52,11.52,0,0,1,2.5-2.08,10.25,10.25,0,0,0,1.35-1A12.58,12.58,0,0,0,28.64,103c1.42-2.5,2.53-4.62,3.48-6.67a15.49,15.49,0,0,0,1.28-4.1c.07-.41.13-.83.19-1.24s.1-.73.16-1.09a6.73,6.73,0,0,0,.09-1.52c0-.34,0-.68-.05-1a.8.8,0,0,1,.48-.92.19.19,0,0,1,.15,0,.74.74,0,0,1,.42.66l.06.35c0,.16.05.31.07.47s0,.29.05.44a10.54,10.54,0,0,1,.12,1.26A8.77,8.77,0,0,1,35,91.29c-.15.86-.34,1.72-.53,2.56l-.06.31c-.14.6,0,.85.49,1.08a25.22,25.22,0,0,0,4.35,1.39c1,.24,2,.44,3,.63l.15,0c.44.09.88.16,1.32.23l.64.1.57.1,1.09.18c.58.09,1.16.18,1.74.25.3,0,.61.06.91.09l.66.07.67.08c.42,0,.84.11,1.26.13.81,0,1.64.07,2.44.08h2.5l.53,0,1.54-.17c.71-.1,1.35-.19,2-.32a9.69,9.69,0,0,0,3-1.17c1.2-.71,2.39-1.43,3.58-2.15A11.05,11.05,0,0,1,72,93.17a16.63,16.63,0,0,1,4.85.3c.53.13,1.05.29,1.55.44l.9.27h.13v-.12l-.05-.17c-.08-.31-.17-.62-.28-.92a10.36,10.36,0,0,1-.65-3.55,12.44,12.44,0,0,1,.1-1.36c0-.26,0-.52.07-.78a10,10,0,0,1,.11-1.07,35.64,35.64,0,0,1,.86-3.82,17.65,17.65,0,0,1,2.56-5.55,10.82,10.82,0,0,1,1.5-1.7,1.34,1.34,0,0,1,.26-.19.44.44,0,0,1,.62,0,.43.43,0,0,1,0,.55l-.13.18a2.91,2.91,0,0,1-.32.46,9.48,9.48,0,0,0-1.89,2.64,28.14,28.14,0,0,0-1.67,5.34c-.15.67-.27,1.36-.38,2l-.09.5a15,15,0,0,0-.21,2.49v.56a8,8,0,0,0,.31,2.17c.19.64.39,1.28.59,1.91l.39,1.27a17.27,17.27,0,0,0,2.44,5.19A8.69,8.69,0,0,1,84.85,103c.19.64.38,1.28.58,1.91.3,1,.61,2,.93,3.07a1.44,1.44,0,0,1-.22,1.34l-.35.46c-.1.12-.2.25-.29.38a44.26,44.26,0,0,1-3.32,4l-1.07,1.14c-.66.71-1.34,1.45-2,2.16s-1.23,1.2-1.85,1.76l-.44.4c-.19.19-.4.36-.61.54l-.64.55a.89.89,0,0,0-.31.65.84.84,0,0,1-.46.75,4,4,0,0,1-.47.21,8.07,8.07,0,0,0-3.37,2.48,2.8,2.8,0,0,0-.27.4.3.3,0,0,0,0,.25s0,0,.1.08a2.19,2.19,0,0,0,.76.06c.22,0,.38-.15.59-.46a3.26,3.26,0,0,1,2.07-1.38,1.73,1.73,0,0,1,.5-.07.5.5,0,0,1,.42.3.53.53,0,0,1-.18.48,2.61,2.61,0,0,1-.3.2,1.18,1.18,0,0,0-.19.11,7.53,7.53,0,0,0-.68.51c-.17.14-.21.19-.16.31s.09.12.25.16l.15,0H74l2,.08h.11a2.87,2.87,0,0,0,1.13,0,2.78,2.78,0,0,0,1.51-.69A14.8,14.8,0,0,0,81,122.71a49.09,49.09,0,0,1,3.6-4.1c1.74-1.8,3.53-3.5,5.2-5.07.39-.37.8-.71,1.21-1l.21-.17a2.8,2.8,0,0,0,1-1.57,17.57,17.57,0,0,0,.28-2.15l0-.5c0-.52.09-1.35.11-1.83l0-.32c0-.62,0-1.25,0-1.87s0-1.32,0-2v-1.66a5.83,5.83,0,0,1,.08-1A2.82,2.82,0,0,1,94,97.57a14.82,14.82,0,0,0,2.88-2.69,11.7,11.7,0,0,0,2.21-8.74.6.6,0,0,1,.26-.53.35.35,0,0,1,.3,0,.51.51,0,0,1,.3.28l0,.05a.93.93,0,0,1,.08.2l.09.42a5.55,5.55,0,0,1,.19,1.08,11.34,11.34,0,0,1,0,2A13.16,13.16,0,0,1,99.73,92a13,13,0,0,1-4.34,6.29c-.29.23-.43.43-.44.63s.12.47.42.77a6.72,6.72,0,0,1,.78,1c.95,1.36,1.71,2.48,2.4,3.52a12,12,0,0,0,3.19,3.49c.38.26.73.56,1.07.84l.39.32a.91.91,0,0,1,.22,1.28,1.43,1.43,0,0,1-.14.2l-.77,1c-.52.65-1,1.3-1.55,2a32.89,32.89,0,0,0-3.34,5,3.45,3.45,0,0,1-1.44,1.49,7.72,7.72,0,0,0-2.8,2.77.18.18,0,0,0,0,.08,2.94,2.94,0,0,0,.59.2.39.39,0,0,0,.5-.23,2.66,2.66,0,0,1,.21-.33l.1-.13a3.35,3.35,0,0,1,1.39-1.23,1.46,1.46,0,0,1,.44-.12.48.48,0,0,1,.41.22.49.49,0,0,1,0,.47,1.61,1.61,0,0,1-.22.23l-.12.11-.14.16a5.6,5.6,0,0,0-.45.54c-.09.11-.1.19-.08.23s.09.07.24.08l1.27,0,.78,0a.86.86,0,0,1,.22,0,2.24,2.24,0,0,0,1.2-.06,2.43,2.43,0,0,0,1.41-1c.57-.77,1.11-1.58,1.64-2.36.42-.62.84-1.24,1.27-1.85s.75-1.08,1.11-1.61c.75-1.1,1.52-2.22,2.36-3.28a8.36,8.36,0,0,0,1.15-1.78,3.67,3.67,0,0,0,.21-1.78c0-.31-.12-.62-.19-.93a7.26,7.26,0,0,1-.26-2.14l0-.36,0-.38c0-.58.09-1.25.2-1.91A18,18,0,0,1,109.76,99a2,2,0,0,0,0-1.59,19.73,19.73,0,0,0-2.85-5.16,12.06,12.06,0,0,1-2.39-5.13,1.4,1.4,0,0,1,.38-1.34,4.84,4.84,0,0,1,2-1.2,13.08,13.08,0,0,1,3.72-.7c.52,0,1-.06,1.54-.07Zm-16.44-27h0a.76.76,0,0,1-.53.2.77.77,0,0,1-.46-.15,1.27,1.27,0,0,1-.34-.4,2.82,2.82,0,0,1-.38-1.3c0-.1,0-.16,0-.22a2.47,2.47,0,0,1,.11-.47.66.66,0,0,1,.42-.38c.21-.05.42.09.52.37l.18.56,0,.15a2.12,2.12,0,0,0,.37.77A.63.63,0,0,1,95.86,56.81Zm3.34.61,0,.13a1.74,1.74,0,0,1-.1.41.52.52,0,0,1-.39.33h-.07a.52.52,0,0,1-.4-.2,2.19,2.19,0,0,1-.44-.72,6.28,6.28,0,0,1-.19-.86l0-.16a.75.75,0,0,1,0-.3V56a.6.6,0,0,1,1.1-.25,3.16,3.16,0,0,1,.51,1.61Zm6.29,1.86a1.62,1.62,0,0,1-1.12.51h-.13a1.48,1.48,0,0,1-1-.35.73.73,0,0,1-.3-.74.7.7,0,0,1,.73-.5h.21a.17.17,0,0,1,.1,0l.31.05.8.14a.93.93,0,0,1,.31.14.47.47,0,0,1,.23.35A.53.53,0,0,1,105.49,59.28Zm6.13.39h0a1,1,0,0,1-.32.19,12.38,12.38,0,0,1-2.18.49H109a1.32,1.32,0,0,1-.28,0,.53.53,0,0,1-.39-.36.51.51,0,0,1,.12-.51,1.23,1.23,0,0,1,.44-.3,6,6,0,0,1,2.4-.33.62.62,0,0,1,.29.09.43.43,0,0,1,.09.75Zm6.18,1.45a1.06,1.06,0,0,1-.88.29h-.1a2.1,2.1,0,0,1-.33-.09,2.5,2.5,0,0,1-1.25-1,1.74,1.74,0,0,1-.23-.62.6.6,0,0,1,.17-.58.65.65,0,0,1,.63,0,1.91,1.91,0,0,1,.25.13l1.53,1a1.68,1.68,0,0,1,.21.18A.49.49,0,0,1,117.8,61.12ZM128.35,75.9a.63.63,0,0,1-.08.23,5.41,5.41,0,0,1-1,1.4,1.36,1.36,0,0,1-.34.25l-.14.08a.2.2,0,0,1-.11,0h0a.69.69,0,0,1-.53-.31.61.61,0,0,1,0-.56,3.2,3.2,0,0,1,.47-.87,2.7,2.7,0,0,1,1-.86.55.55,0,0,1,.62,0A.57.57,0,0,1,128.35,75.9Zm.44-10.38v-.16a.5.5,0,0,1,.94-.22,2.81,2.81,0,0,1,.61,1.76l0,.23c0,.18,0,.36-.08.54a1.24,1.24,0,0,1-.19.4.55.55,0,0,1-.44.24h0a.53.53,0,0,1-.43-.22,1,1,0,0,1-.2-.41c-.07-.35-.11-.7-.16-1.05a5.28,5.28,0,0,1-.05-.66A2.27,2.27,0,0,1,128.79,65.52Zm0,5.68,0,0a.58.58,0,0,1,.29.64h0a.59.59,0,0,1-.46.38l-.08,0a.55.55,0,0,1-.21,0h-.05a1.85,1.85,0,0,1-1.52-.86,2.07,2.07,0,0,1-.32-.67.59.59,0,0,1,.14-.57.54.54,0,0,1,.59-.08,2.74,2.74,0,0,1,.7.41C128.19,70.76,128.47,71,128.76,71.2Zm-4-9.54h0c-.34.09-.68.14-1,.19a1.38,1.38,0,0,1-.29,0h0l-.09,0h0l-.24,0a3.83,3.83,0,0,1-.56-.09.69.69,0,0,1-.59-.63c0-.41.37-.53.59-.6a3.65,3.65,0,0,1,2.11.07.77.77,0,0,1,.19.08.55.55,0,0,1,.3.5A.48.48,0,0,1,124.71,61.66Zm.61,2.57v-.07a.79.79,0,0,1,0-.2.53.53,0,0,1,.81-.32,1.07,1.07,0,0,1,.25.21l.4.46.33.4a.58.58,0,0,1,.1.69.68.68,0,0,1-.58.3h-.12A1.45,1.45,0,0,1,125.32,64.23ZM121.7,78.48a.54.54,0,0,1,.63-.08c.09,0,.18.1.27.15l.21.13c.36.19.72.38,1.09.56a.34.34,0,0,0,.18,0c.49.06.8.34.78.72a.78.78,0,0,1-.86.73h0a.18.18,0,0,1-.1,0h0l-.21-.06a4.59,4.59,0,0,1-.48-.17,4.37,4.37,0,0,1-1.42-1.11.87.87,0,0,1-.19-.33A.58.58,0,0,1,121.7,78.48Zm-5.76,3.26c.08-.35.18-.7.28-1l.11-.37a.5.5,0,0,1,.11-.19.54.54,0,0,1,.51-.26.52.52,0,0,1,.39.36,4.1,4.1,0,0,1,.16.65c0,.09,0,.17,0,.25a.11.11,0,0,1,0,.08l0,.24q0,.27-.09.51h0a.84.84,0,0,1-.15.28.81.81,0,0,1-.64.41.48.48,0,0,1-.18,0A.82.82,0,0,1,115.94,81.74ZM32.11,53.18l.1.13a2.47,2.47,0,0,0,1.5.9,2.51,2.51,0,0,1,.61.19.61.61,0,0,1,.31.42c0,.13,0,.36-.4.44l-.34.07h-.07a4.51,4.51,0,0,1-2.34-.85,3.44,3.44,0,0,1-1.16-2,.46.46,0,0,1,.16-.49A.52.52,0,0,1,31,52a2.45,2.45,0,0,1,.47.42Zm.58,17.13a.58.58,0,0,1-.41.19.56.56,0,0,1-.35-.14,1.42,1.42,0,0,1-.35-.5c-.17-.45-.32-.91-.47-1.36l0-.06a.93.93,0,0,1,0-.27V68.1a.54.54,0,0,1,.24-.53.51.51,0,0,1,.52,0,1.29,1.29,0,0,1,.37.33,4.43,4.43,0,0,1,.75,1.66A.71.71,0,0,1,32.69,70.31ZM25.57,58.83a3.15,3.15,0,0,1-.11-.47.72.72,0,0,1,.42-.73.6.6,0,0,1,.69.33,5.51,5.51,0,0,1,.44.95,3.29,3.29,0,0,0,2.53,2.27,4.33,4.33,0,0,1,.52.16,1,1,0,0,1,.35.22.68.68,0,0,1,.18.65.67.67,0,0,1-.49.46,1.09,1.09,0,0,1-.31,0H29.6l-.13,0a1.66,1.66,0,0,1-.37-.09A5.38,5.38,0,0,1,25.57,58.83Zm.91,11a.62.62,0,0,1-.55.3.86.86,0,0,1-.3-.05,2.74,2.74,0,0,1-1.32-1,3.16,3.16,0,0,1-.4-.65.64.64,0,0,1,0-.59.62.62,0,0,1,.53-.23h.09a1.25,1.25,0,0,1,.27.12A8.26,8.26,0,0,1,26.35,69,.61.61,0,0,1,26.48,69.85ZM22.06,53.07a7.34,7.34,0,0,1,.76-2.41,5.83,5.83,0,0,1,3.86-3.25l.15,0,1.11-.3a29.09,29.09,0,0,0,2.87-1c.49-.19,1-.4,1.39-.61l.32-.18A1.76,1.76,0,0,1,33.64,45,1.07,1.07,0,0,1,34,45a.54.54,0,0,1,.25.29.47.47,0,0,1-.05.38,2.27,2.27,0,0,1-1,.79l-.22.11c-.45.24-.91.46-1.36.67a19.16,19.16,0,0,1-4.18,1.38,1.33,1.33,0,0,0-1.12,1,1.76,1.76,0,0,0,0,.52v.31a1.28,1.28,0,0,1-1.64,1.31.77.77,0,0,0-1,.59,3.45,3.45,0,0,0-.11,1.66,1.13,1.13,0,0,1-.09.65.46.46,0,0,1-.29.29.39.39,0,0,1-.15,0,.61.61,0,0,1-.31-.09,1.3,1.3,0,0,1-.29-.28A2.09,2.09,0,0,1,22.06,53.07Zm0,7h0a.63.63,0,0,1,.78,0,2,2,0,0,1,.5.42A3.73,3.73,0,0,1,24,61.87.45.45,0,0,1,24,62a.13.13,0,0,1,0,.09.17.17,0,0,1,0,.14L24,62.3a.63.63,0,0,1-.23.26.4.4,0,0,1-.24.07.6.6,0,0,1-.41-.19c-.26-.29-.52-.57-.74-.87a4.74,4.74,0,0,1-.31-.52c0-.08-.08-.17-.13-.25A.6.6,0,0,1,22,60Zm-2-8h0a1.28,1.28,0,0,1,.25-.51s.24-.32.48-.26a.69.69,0,0,1,.42.38,1.51,1.51,0,0,1,.09.47l0,.12a.54.54,0,0,1,0,.18.14.14,0,0,1,0,.12l0,.16a1.6,1.6,0,0,1-.1.42.52.52,0,0,1-.36.31h-.09a.57.57,0,0,1-.4-.18A1.21,1.21,0,0,1,20,52.05Zm.32,4.37h0l.11.15-.11-.16a.5.5,0,0,1,.62-.08.69.69,0,0,1,.31.63v0l-.08.27c-.07.22-.13.45-.2.68a.54.54,0,0,1-.53.44h0a.58.58,0,0,1-.49-.44A1.35,1.35,0,0,1,20.34,56.42Zm-2.79,2.87a.54.54,0,0,1-.44.28h0a.53.53,0,0,1-.41-.22,1.57,1.57,0,0,1-.33-.66,1.12,1.12,0,0,0-.82-.9,3.25,3.25,0,0,1-.53-.24.78.78,0,0,1-.41-.58.77.77,0,0,1,.29-.64,1.5,1.5,0,0,1,.47-.28,6,6,0,0,1,1.93-.43.64.64,0,0,1,.73.55l0,.08a1.43,1.43,0,0,1,0,.22,1.5,1.5,0,0,1,0,.3v.11a7,7,0,0,1-.32,2A1.81,1.81,0,0,1,17.55,59.29Zm1,8.79h0a.38.38,0,0,1-.25-.09.67.67,0,0,1-.07-.84l.12-.29q.32-.78.66-1.53a2.06,2.06,0,0,1,.4-.56.48.48,0,0,1,.66-.11,1.06,1.06,0,0,1,.24.29l.05.09a.2.2,0,0,1,0,.15c0,.06,0,.12,0,.18a1.32,1.32,0,0,1-.08.3,7,7,0,0,1-1.11,2A.9.9,0,0,1,18.54,68.08Zm.54,7a1.51,1.51,0,0,1-.07-.39.54.54,0,0,1,.25-.46.52.52,0,0,1,.51,0,2.32,2.32,0,0,1,.44.38,6.29,6.29,0,0,0,1.31,1.17l.19.15a.56.56,0,0,1,.2.74.9.9,0,0,1-.33.27s-.06,0-.07,0a.2.2,0,0,1-.11,0h0a2.56,2.56,0,0,1-1.66-.87A3,3,0,0,1,19.08,75ZM23,95.77h0a3.49,3.49,0,0,1-.25.59,2.5,2.5,0,0,0-.33,1.4,2.12,2.12,0,0,1-.2,1,.59.59,0,0,1-.5.4h0a.68.68,0,0,1-.55-.37,1.19,1.19,0,0,1-.15-.83,6,6,0,0,1,.75-2.21,2.7,2.7,0,0,1,.37-.44.8.8,0,0,1,.23-.13s.1,0,.1,0a.57.57,0,0,1,.49.22A.46.46,0,0,1,23,95.77ZM22.6,84.06a.81.81,0,0,1-.84-.53.17.17,0,0,1,0-.14.72.72,0,0,1,.58-.54l.11,0a5.27,5.27,0,0,1,2.55,0,2.82,2.82,0,0,1,.61.27.53.53,0,0,1,.29.63.51.51,0,0,1-.56.37h-.42a6.62,6.62,0,0,0-1.48-.07ZM26,91.17l0,.09a.66.66,0,0,1-.39.71.53.53,0,0,1-.2,0,.77.77,0,0,1-.47-.22A2.81,2.81,0,0,1,24,90.07a4,4,0,0,1,.07-1.34l0-.1a1.24,1.24,0,0,1,0-.16l0,0c.07-.15.17-.39.47-.39h0c.13,0,.42,0,.52.5a7.74,7.74,0,0,0,.59,1.91,4.3,4.3,0,0,1,.16.41l0,.07Zm.34,9.75,0,.2a3.41,3.41,0,0,1-2,2.4.71.71,0,0,1-.28.06.57.57,0,0,1-.22,0,.62.62,0,0,1-.3-.35.66.66,0,0,1,0-.46,3.38,3.38,0,0,1,.39-.69,7.12,7.12,0,0,1,.58-.64l.09-.1a1.85,1.85,0,0,0,.48-1,.69.69,0,0,1,0-.18.56.56,0,0,1,.43-.39A.49.49,0,0,1,26,100a2.53,2.53,0,0,1,.26.52l.09.21A.18.18,0,0,1,26.31,100.92Zm.36-22.58h0a.65.65,0,0,1-.59-.48c-.09-.27-.15-.54-.22-.81l0-.07c0-.18-.07-.36-.11-.54a3.92,3.92,0,0,0-.29-1.08.52.52,0,0,1,.08-.64.47.47,0,0,1,.58,0,1.56,1.56,0,0,1,.72.58,4.4,4.4,0,0,1,.63,2s0,0,0,.08l0,.13c0,.14-.09.31-.16.46A.64.64,0,0,1,26.67,78.34ZM29.87,94l0,.17a1.91,1.91,0,0,1-.11.41h0a3.84,3.84,0,0,1-1.07,1.55,1.21,1.21,0,0,1-.8.34h0a.58.58,0,0,1-.51-.23.57.57,0,0,1-.05-.54,2.29,2.29,0,0,1,.29-.54l.43-.63.47-.7a1.82,1.82,0,0,0,.15-.27,3.37,3.37,0,0,1,.19-.32c0-.06.24-.34.46-.3a.7.7,0,0,1,.44.36,2,2,0,0,1,.11.45l0,.17A.11.11,0,0,1,29.87,94Zm1.26-8a4.83,4.83,0,0,1-.93,2.45,1.3,1.3,0,0,1-.85.52h-.11a.43.43,0,0,1-.33-.11.5.5,0,0,1-.12-.45,1.27,1.27,0,0,1,.12-.39c.08-.21.17-.41.26-.61a7.35,7.35,0,0,0,.55-1.5c0-.17.07-.35.1-.53l0-.19a.33.33,0,0,1,0-.23l0-.07a.59.59,0,0,1,.32-.3.61.61,0,0,1,.54.25,2.13,2.13,0,0,1,.34,1V86Zm3.64-8.69a2.16,2.16,0,0,1-1.17.36A3.55,3.55,0,0,1,31.91,77a2,2,0,0,1-.8-1,1.25,1.25,0,0,1-.05-.32.52.52,0,0,1,.86-.46,3.55,3.55,0,0,1,.49.41,2.38,2.38,0,0,0,1.23.61l.35.07.42.08a1.31,1.31,0,0,1,.34.13.45.45,0,0,1,0,.8Zm5.82,10.25c-.24.08-.49.15-.72.21l-.27.07h-.08a3.7,3.7,0,0,1-2.29-1.13,1.45,1.45,0,0,1-.19-.29c-.13-.24-.25-.55,0-.81a.62.62,0,0,1,.77,0l.4.25a3.3,3.3,0,0,0,1.59.53,5.78,5.78,0,0,1,.71.16A.52.52,0,0,1,41,87,.54.54,0,0,1,40.59,87.51Zm-.31-7a2.26,2.26,0,0,1-.08,1,.61.61,0,0,1-.46.48h-.07a.65.65,0,0,1-.52-.31,2.1,2.1,0,0,1-.45-1.81,3.38,3.38,0,0,1,.87-1.71.47.47,0,0,1,.55-.14.45.45,0,0,1,.26.5v.11a0,0,0,0,1,0,0v.13c0,.12,0,.25-.07.39A3.83,3.83,0,0,0,40.28,80.55Zm1-5.9a.62.62,0,0,1-.59.39h0a2.17,2.17,0,0,1-.56-.12,6.22,6.22,0,0,1-.71-.29,5.58,5.58,0,0,0-1.51-.5,1.7,1.7,0,0,1-.51-.17c-.13-.06-.32-.23-.29-.42a.52.52,0,0,1,.33-.44,5.47,5.47,0,0,1,.68-.14l.18,0a.67.67,0,0,1,.2,0h.06a3.44,3.44,0,0,1,2.19.66,2.84,2.84,0,0,1,.45.42A.59.59,0,0,1,41.28,74.65Zm3.61,1.89a1.6,1.6,0,0,1,.83-1.12,10.93,10.93,0,0,1,1.1-.42.7.7,0,0,1,.41,0,.65.65,0,0,1,.5.47.63.63,0,0,1-.25.62,5.17,5.17,0,0,1-.76.49l-.79.38-.26.12-.17.06-.11,0A.49.49,0,0,1,45,77,.45.45,0,0,1,44.89,76.54ZM46.54,88.8a.5.5,0,0,1-.32.11.54.54,0,0,1-.34-.12,2.81,2.81,0,0,1-.47-.5c-.41-.6-.8-1.21-1.2-1.81L44,86.22a2.24,2.24,0,0,1-.19-.38.44.44,0,0,1,0-.41.52.52,0,0,1,.47-.16.14.14,0,0,1,.09,0l0,0a.93.93,0,0,1,.28.18c.41.43.81.85,1.17,1.29a5.59,5.59,0,0,1,.55.82l.09.13a1.86,1.86,0,0,1,.18.47A.55.55,0,0,1,46.54,88.8Zm2-7.94a3.53,3.53,0,0,1-1.13,1.84,2,2,0,0,1-.66.35l-.22,0a.56.56,0,0,1-.36-.12.66.66,0,0,1-.18-.59,1.63,1.63,0,0,1,.13-.39A13.41,13.41,0,0,1,47.31,80l.11-.14a1.12,1.12,0,0,1,.26-.27.39.39,0,0,1,.1-.08.18.18,0,0,1,.22,0A1.22,1.22,0,0,1,48.54,80.86Zm3.69,2c0-.14.09-.27.13-.4a5.08,5.08,0,0,0,.17-.51,1.36,1.36,0,0,0,0-.3,1.21,1.21,0,0,1,0-.19v-.12c0-.22,0-.45.08-.67a.71.71,0,0,1,.15-.3.55.55,0,0,1,.43-.28.56.56,0,0,1,.43.24,1.52,1.52,0,0,1,.25,1.08,3.81,3.81,0,0,1-.7,2,1.43,1.43,0,0,1-.5.39.35.35,0,0,1-.2.05.43.43,0,0,1-.22-.06.41.41,0,0,1-.19-.37A1.8,1.8,0,0,1,52.23,82.88ZM55.62,90a2.06,2.06,0,0,1-1.25.58h-.06A3.84,3.84,0,0,1,52,89.47a1.66,1.66,0,0,1-.19-.3l-.07-.11a.48.48,0,0,1,.07-.61.53.53,0,0,1,.62-.16l.13.06a2.53,2.53,0,0,1,.33.16,3.44,3.44,0,0,0,2,.55,1.72,1.72,0,0,1,.61.12.49.49,0,0,1,.3.36A.51.51,0,0,1,55.62,90Zm-1-12.73a3,3,0,0,1-.65-.7.45.45,0,0,1-.06-.47.51.51,0,0,1,.42-.29,1.47,1.47,0,0,1,.59.07,3.19,3.19,0,0,1,.65.29,2.32,2.32,0,0,0,1.35.32,1.89,1.89,0,0,1,1.11.29,1.07,1.07,0,0,1,.22.15.57.57,0,0,1,.24.55.58.58,0,0,1-.43.42,2,2,0,0,1-.45.09h-.47A4.65,4.65,0,0,1,54.62,77.26Zm4.79,7.11h-.07a2.7,2.7,0,0,1-1.68-.68,2.42,2.42,0,0,1-.79-1A.58.58,0,0,1,57,82a.53.53,0,0,1,.63-.12l.43.19.56.26a6.34,6.34,0,0,0,1.44.56.85.85,0,0,1,.31.14.55.55,0,0,1,.25.35.49.49,0,0,1-.13.4A1.3,1.3,0,0,1,59.41,84.37Zm3.23,3.33a8.19,8.19,0,0,1-1,.64l-.07,0a.93.93,0,0,1-.44.09H61a.6.6,0,0,1-.52-.29.56.56,0,0,1,0-.57,3.11,3.11,0,0,1,.53-.6c.28-.26.58-.51.87-.75l.22-.19.06-.06a.52.52,0,0,1,.6-.17.68.68,0,0,1,.36.7A1.47,1.47,0,0,1,62.64,87.7Zm.27-9.63a.7.7,0,0,1-.38.12.48.48,0,0,1-.18,0,.69.69,0,0,1-.4-.41.7.7,0,0,1-.05-.25l-.06-1.27,0-.49a.13.13,0,0,1,0-.06v-.13a2.68,2.68,0,0,1,0-.49.71.71,0,0,1,.28-.46c.13-.09.35-.13.6.19a3.53,3.53,0,0,1,.54,1.27c.06.22.1.44.14.67A1.34,1.34,0,0,1,62.91,78.07ZM67.2,82.2a.71.71,0,0,1-.47.65.51.51,0,0,1-.2,0,.67.67,0,0,1-.52-.34,2.6,2.6,0,0,1-.47-1.35,4,4,0,0,1,.6-2.33.71.71,0,0,1,.1-.14c.23-.31.44-.38.65-.25a.66.66,0,0,1,.3.52,5.07,5.07,0,0,1,0,.56,1.65,1.65,0,0,0,0,.32,2.67,2.67,0,0,0,0,.4v.09s0,.06,0,.09,0,.09,0,.13c0,.31,0,.63.06.94l0,.38A2.81,2.81,0,0,1,67.2,82.2Zm1.25-6.49A2.69,2.69,0,0,1,66.71,75a.55.55,0,0,1-.21-.65.65.65,0,0,1,.56-.4,1.13,1.13,0,0,1,.26,0h.16l.39,0c.32,0,.64,0,1,0a.88.88,0,0,0,.55-.16l.54-.36a1.27,1.27,0,0,1,.31-.15.55.55,0,0,1,.61.13.54.54,0,0,1,.1.61,2,2,0,0,1-.67.93,3.05,3.05,0,0,1-1.7.64Zm4.78,9.14h0a1.94,1.94,0,0,1-.67.83,4.07,4.07,0,0,1-1.93.7h-.07l-.19-.05a2.07,2.07,0,0,1-.47-.18.49.49,0,0,1-.28-.37.5.5,0,0,1,.18-.45,1.81,1.81,0,0,1,.42-.33,14,14,0,0,1,2.22-1l.11,0h.06a.59.59,0,0,1,.61.14A.61.61,0,0,1,73.23,84.85Zm1.1-6.25a1.34,1.34,0,0,1-.86.81,6,6,0,0,1-.68.15l-.29.06a2.11,2.11,0,0,1-1.18-.35.59.59,0,0,1,.16-1.11,6.52,6.52,0,0,1,.69-.16l1.56-.23c.17,0,.49-.06.61.23A1,1,0,0,1,74.33,78.6Zm1.16-2.86h0a1.9,1.9,0,0,1-.33-.92c0-.35-.07-.7-.11-1l0-.37a1.68,1.68,0,0,1,.16-1,.64.64,0,0,1,.43-.34c.25,0,.46.28.47.29a1.1,1.1,0,0,1,.12.33l0,.1a9.41,9.41,0,0,1,.37,2.23v.12a1,1,0,0,1,0,.35.58.58,0,0,1-.43.5H76A.62.62,0,0,1,75.49,75.74ZM78,80.4l0,.06a1,1,0,0,1-.11.28h0c-.21.35-.43.73-.67,1.09s-.34.46-.57.73a.63.63,0,0,1-.47.22.48.48,0,0,1-.24-.06.58.58,0,0,1-.2-.69A4.7,4.7,0,0,1,77.05,80a.76.76,0,0,1,.31-.16.5.5,0,0,1,.43.07.59.59,0,0,1,.17.46A.13.13,0,0,1,78,80.4Zm14.87-5a1.3,1.3,0,0,1,.77-.26h.07l.13,0a1.6,1.6,0,0,1,.33.11,2.29,2.29,0,0,1,.87.85.44.44,0,0,1-.06.59.75.75,0,0,1-.41.17h-.09a12.48,12.48,0,0,1-1.51-.47.57.57,0,0,1-.4-.44A.62.62,0,0,1,92.82,75.42Zm-4-2a7.35,7.35,0,0,1,2-1.18.74.74,0,0,1,.32,0,.6.6,0,0,1,.54,1,1.2,1.2,0,0,1-.35.36,6.28,6.28,0,0,1-1.83.8h-.27a.5.5,0,0,1-.56-.29A.53.53,0,0,1,88.77,73.38ZM84.14,72c-.27.18-.53.35-.8.51a1.31,1.31,0,0,1-.71.22h-.12A.63.63,0,0,1,82,72.5.6.6,0,0,1,82,72a1.84,1.84,0,0,1,.77-.91,3.7,3.7,0,0,1,1.89-.63,1.73,1.73,0,0,1,1.67.76,1,1,0,0,1,.12.31.35.35,0,0,1,0,.11.66.66,0,0,1-.17.48.51.51,0,0,1-.39.07,1.15,1.15,0,0,1-.4-.17A1.14,1.14,0,0,0,84.14,72Zm.69,6.82a2.69,2.69,0,0,1,1-1,.72.72,0,0,1,.2-.09.69.69,0,0,1,.83.2.64.64,0,0,1-.14.85,4,4,0,0,1-.51.44.77.77,0,0,0-.32.48,4.07,4.07,0,0,1-.16.57.69.69,0,0,1-.61.52h-.07a.8.8,0,0,1-.59-.73.49.49,0,0,1,0-.12A2.13,2.13,0,0,1,84.83,78.86ZM82.9,84.19a.62.62,0,0,1,.68-.35,4.81,4.81,0,0,1,.69.15,4.16,4.16,0,0,1,1.27.62.8.8,0,0,1,.34.88.44.44,0,0,1-.44.32l-.12,0H85.2a6,6,0,0,1-2.1-.94A.56.56,0,0,1,82.9,84.19Zm.67,7.57a.57.57,0,0,1-.28.08.58.58,0,0,1-.28-.07,1.6,1.6,0,0,1-.53-.43,2.34,2.34,0,0,1-.23-2.15,3.43,3.43,0,0,1,.38-.77.54.54,0,0,1,.7-.28.64.64,0,0,1,.41.66v0c0,.1,0,.2-.08.3s-.12.48-.2.72a.22.22,0,0,0,0,.21c.12.26.22.52.32.78a1.13,1.13,0,0,1,.08.4A.6.6,0,0,1,83.57,91.76Zm2.67,8.65a.49.49,0,0,1-.36.15.68.68,0,0,1-.29-.07,2.27,2.27,0,0,1-1-.88,3.34,3.34,0,0,1-.38-.73.56.56,0,0,1,.07-.53.65.65,0,0,1,.53-.27.13.13,0,0,1,.1,0l.09,0a1.4,1.4,0,0,1,.32.25c.24.28.46.56.68.85l.19.24a.74.74,0,0,1,.15.26A.56.56,0,0,1,86.24,100.41Zm1-4.59h0a1.65,1.65,0,0,1-.39.17l-.15.06-.08,0h0a.7.7,0,0,1-.57-.32.64.64,0,0,1,0-.6,2.57,2.57,0,0,1,.34-.55l1-1.2.24-.29a.9.9,0,0,1,.2-.19.49.49,0,0,1,.42-.08.39.39,0,0,1,.27.26,1.25,1.25,0,0,1,.11.65A3,3,0,0,1,87.25,95.82Zm2,11.35h0a.43.43,0,0,1-.21,0,.58.58,0,0,1-.37-.16,2,2,0,0,1-.65-1.34.67.67,0,0,1,0-.2.49.49,0,0,0,0-.12.51.51,0,0,1,.34-.55.47.47,0,0,1,.55.25,4.39,4.39,0,0,1,.6,1.36l0,.09v0A.54.54,0,0,1,89.27,107.17Zm.47-5.28a.88.88,0,0,1-.47.2h-.08a.59.59,0,0,1-.45-.19.6.6,0,0,1-.11-.57,3.12,3.12,0,0,1,.23-.59c.21-.42.44-.84.66-1.25a.58.58,0,0,1,.5-.37.55.55,0,0,1,.51.44c0,.13.07.27.1.39l0,.12a.11.11,0,0,1,0,.08A2.88,2.88,0,0,1,89.74,101.89Zm1.17-12.26a2.28,2.28,0,0,1-.56.23c-.42.11-.9.23-1.4.32h-.17a1.36,1.36,0,0,1-.44-.08.57.57,0,0,1-.37-.39.52.52,0,0,1,.2-.48,2.08,2.08,0,0,1,.59-.36,2,2,0,0,1,.61-.19,5.25,5.25,0,0,1,.59-.08l.27,0a.06.06,0,0,1,.06,0l.15,0a1.42,1.42,0,0,1,.44.11.51.51,0,0,1,.34.43A.55.55,0,0,1,90.91,89.63Zm.6-7.4a4.65,4.65,0,0,1-2.34,1.57l-.15,0H88.9a.22.22,0,0,1-.11,0h-.06a.62.62,0,0,1-.59-.38.54.54,0,0,1,.26-.63l.37-.26c.19-.13.37-.25.54-.39.33-.28.66-.58,1-.87l.41-.38.14-.14a2.89,2.89,0,0,1,.37-.31.48.48,0,0,1,.52,0,.49.49,0,0,1,.25.47A2.14,2.14,0,0,1,91.51,82.23ZM94,92.08a2.29,2.29,0,0,0-.1.23l-.12.29a2.43,2.43,0,0,0-.24,1.11c0,.35,0,.7-.07,1v.09a.63.63,0,0,1-.11.3.6.6,0,0,1-.5.29h0a.54.54,0,0,1-.46-.32,2.76,2.76,0,0,1-.17-.54c0-.06,0-.1,0-.14a.17.17,0,0,1,0-.07,5.45,5.45,0,0,1,.68-2.4,1.77,1.77,0,0,1,.38-.43.49.49,0,0,1,.65,0A.45.45,0,0,1,94,92.08Zm1.87-7a4.36,4.36,0,0,0-.29,1.72,2.48,2.48,0,0,1-.18.83.62.62,0,0,1-.57.43h0a.61.61,0,0,1-.57-.39A2.22,2.22,0,0,1,94,86.55a4,4,0,0,1,1.28-2.64c.32-.29.55-.13.62-.07a.61.61,0,0,1,.16.5A2.93,2.93,0,0,1,95.9,85Zm6.54,7.7c.1-.38.2-.79.32-1.18a.63.63,0,0,1,.71-.47.64.64,0,0,1,.39.79q-.19.85-.45,1.71a.6.6,0,0,1-.57.53h0c-.3,0-.47-.37-.48-.71h0l0,0a.16.16,0,0,1,0-.15Zm-1.71,4.8a8.76,8.76,0,0,1-.63,2.08l-.17-.08h0l.16.1a.69.69,0,0,1-.21.3.74.74,0,0,1-.39.15h-.1a.61.61,0,0,1-.34-.38.56.56,0,0,1,0-.28v-.09a5.23,5.23,0,0,1,.73-2.1.74.74,0,0,1,.12-.13.49.49,0,0,1,.6-.18A.55.55,0,0,1,100.73,97.53ZM100.64,81a1.59,1.59,0,0,1-1.18-.59,3.15,3.15,0,0,1-.84-1.48c0-.1,0-.19-.05-.29l0-.13a.28.28,0,0,1,0-.09v0a.52.52,0,0,1,.31-.56.62.62,0,0,1,.71.23l1.6,1.85.11.13a.61.61,0,0,1,.12.59.63.63,0,0,1-.51.37ZM102,103a1.17,1.17,0,0,1-.27,0h-.17a.2.2,0,0,1-.11,0l-.06,0a.88.88,0,0,1-.29-.24.54.54,0,0,1,.14-.69c.41-.39.76-.71,1.09-1a2.78,2.78,0,0,1,.62-.39.75.75,0,0,1,.57,0c.33.13.28.5.26.63a1.62,1.62,0,0,1-.47.89A3.66,3.66,0,0,1,102,103Zm2.94,4.55a.63.63,0,0,1-.57.26.15.15,0,0,1-.09,0l-.06,0a1.66,1.66,0,0,1-.3-.15,1.76,1.76,0,0,1-.65-.92.55.55,0,0,1,.18-.6.51.51,0,0,1,.61,0,2.14,2.14,0,0,1,.89,1A.54.54,0,0,1,105,107.53Zm1.9-5.21a.64.64,0,0,1,.76.16.6.6,0,0,1,.07.74,3.43,3.43,0,0,1-1.41,1.26.41.41,0,0,1-.17,0h0a.57.57,0,0,1-.49-.24.39.39,0,0,1,0-.39A2.51,2.51,0,0,1,106.87,102.32ZM105,95.77a2.22,2.22,0,0,1,.41-.22.5.5,0,0,1,.48,0,.62.62,0,0,1,.22.54.16.16,0,0,1,0,.09l0,.07a1.25,1.25,0,0,1-.2.34,4,4,0,0,1-1.34,1.14,1.32,1.32,0,0,1-.41.14h-.09a.46.46,0,0,1-.42-.19.52.52,0,0,1,0-.55.57.57,0,0,1,.12-.17l0-.05A6.34,6.34,0,0,1,105,95.77Zm5.2-13.58a.69.69,0,0,1-.65.39h0a1.54,1.54,0,0,1-1.36-1.18,1,1,0,0,1-.06-.22.49.49,0,0,1,.18-.48.47.47,0,0,1,.5,0,1.3,1.3,0,0,1,.26.17l.14.11c.26.19.51.39.76.59S110.38,81.85,110.24,82.19Z"/><path class="cls-1" d="M35.31,122.32c.2,0,.4.05.6.07H36l.81.06.8.06,1.49.1h2.11a.93.93,0,0,0,.72-.31.91.91,0,0,0,.22-.76v-.11c-.06-.56-.13-1.14-.21-1.71l-.07-.45c-.09-.64-.19-1.3-.33-1.94a35.19,35.19,0,0,0-2.28-6.68l-.11-.23a27,27,0,0,1-1.22-3,47.9,47.9,0,0,1-1.53-6.34,24.59,24.59,0,0,1-.38-3.2,1,1,0,0,0-.6-1L34,96.37a.27.27,0,0,0-.13,0,.65.65,0,0,0-.47.39l-.18.38-.09.2c-.19.42-.38.84-.58,1.26-.43,1-.89,2-1.36,2.92a19.14,19.14,0,0,1-1.95,3.21c-.24.31-.47.62-.68.93a.87.87,0,0,0,.15,1l.42.38c.47.44,1,.89,1.46,1.3s1.31,1,2,1.44a4.32,4.32,0,0,1,1.74,2.36c0,.18.1.36.14.54l.42,1.52c.28,1,.56,2.07.85,3.1a1,1,0,0,1-.36,1.12,1.5,1.5,0,0,1-.24.18l-.1.08a10.44,10.44,0,0,0-1.85,1.66,3.66,3.66,0,0,0-.79,1.66c0,.13,0,.17.12.2a1.47,1.47,0,0,0,.48.07H33a1.14,1.14,0,0,0,.51-.09.67.67,0,0,0,.14-.27,1.76,1.76,0,0,1,.09-.2l.07-.18a3.4,3.4,0,0,1,1.34-1.64,1.9,1.9,0,0,1,.45-.23.7.7,0,0,1,.23,0,.42.42,0,0,1,.39.23.48.48,0,0,1-.1.59l-.24.26a4.87,4.87,0,0,0-.43.49,3.88,3.88,0,0,0-.43.73.32.32,0,0,0,0,.27A.35.35,0,0,0,35.31,122.32Z"/><polygon class="cls-1" points="18.39 67.85 18.39 67.85 18.39 67.85 18.39 67.85"/><path class="cls-1" d="M38,46.59v-.05a4.25,4.25,0,0,0-.23-.77.78.78,0,0,0-.16-.24.32.32,0,0,0-.27-.09.52.52,0,0,0-.26.16l-.48.47c-.17.17-.31.44-.1.64s.27.19.4.3a3.42,3.42,0,0,1,.47.53.87.87,0,0,0,.38.31.31.31,0,0,0,.41-.18.37.37,0,0,0,0-.18Q38,47,38,46.59Z"/><path class="cls-1" d="M36.42,48.27a.23.23,0,0,0,.14-.24,1.65,1.65,0,0,0-.24-.5l-.16-.28c-.07-.12-.14-.33-.26-.4a.32.32,0,0,0-.27,0,1.38,1.38,0,0,0-.46.44.33.33,0,0,0,0,.32,1.92,1.92,0,0,0,.59.47C36,48.2,36.24,48.36,36.42,48.27Z"/><polygon class="cls-1" points="108.48 57.57 108.48 57.57 108.48 57.57 108.48 57.57"/><path class="cls-1" d="M15.14,53.4a1,1,0,0,0,1.33.14A7,7,0,0,0,17.59,52c-.24-.13-.35-.18-.56-.11-.58.19-1.18.34-1.78.49s-.58.36-.3.79A1.65,1.65,0,0,0,15.14,53.4Z"/></g></g></svg>